<svg xmlns="http://www.w3.org/2000/svg" width="310" height="57" viewBox="0 0 310 57">
  <g id="Group_829" data-name="Group 829" transform="translate(-21 -40)">
    <text id="Church_Notes" data-name="Church Notes" transform="translate(212 84)" fill="#3a4759" font-size="35" font-family="Helvetica-Bold, Helvetica" font-weight="700" letter-spacing="0.02em"><tspan x="-118.583" y="0">Church Notes</tspan></text>
    <g id="Layer_x0020_1" transform="translate(21 40)">
      <path id="Path_1" data-name="Path 1" d="M15454.609,7964.932l.016,12.226-1.7,3.5-1.7-3.5-.008-12.226C15451.221,7964.127,15454.609,7964.067,15454.609,7964.932Zm-1.255,13.622.673-1.336a2.633,2.633,0,0,0-2.207,0l.629,1.336A2.392,2.392,0,0,1,15453.354,7978.554Z" transform="translate(-15410.943 -7943.544)" fill="#3a4759" fill-rule="evenodd"/>
      <path id="Path_2" data-name="Path 2" d="M15588.16,14359.789h2.69v2.69h-2.69Z" transform="translate(-15547.525 -14322.356)" fill="#3a4759" fill-rule="evenodd"/>
      <path id="Path_3" data-name="Path 3" d="M4599.131,7732.44h-1.856l-5.483-6.776c-.739-.914-1.382-.772-1.983.121-1.153,1.713-2.3,3.657-3.754,5.865a14.884,14.884,0,0,1-6.029.733c-5.341-.418-8.744-4.049-8.744-9.486,0-5.974,3.544-9.306,8.005-10.143a13.747,13.747,0,0,1,7.076.6l-.862,2.931a8.709,8.709,0,0,0-5.353-.64,6.515,6.515,0,0,0-5.142,6.7,7.29,7.29,0,0,0,1.822,5.313c1.632,1.678,4.394,2.194,7.914,1.44,1.093-1.712,1.981-3.22,2.811-4.414,1.966-2.831,4.41-2.827,6.458-.233l4.328,5.483h.793Z" transform="translate(-4559.365 -7692.43)" fill="#3a4759" fill-rule="evenodd"/>
      <path id="Path_4" data-name="Path 4" d="M28.5,0A28.5,28.5,0,1,1,0,28.5,28.5,28.5,0,0,1,28.5,0Zm0,2.349A26.151,26.151,0,1,1,2.349,28.5,26.151,26.151,0,0,1,28.5,2.349Z" fill="#3a4759" fill-rule="evenodd"/>
    </g>
  </g>
</svg>
